<?xml version="1.0" encoding="UTF-8"?><svg viewBox="0 0 656 458.69" xmlns="http://www.w3.org/2000/svg"><rect y="434.34" width="656" height="2" fill="#3f3d56"/><path d="m471.97 210.81c-6.0733-36.417-37.728-64.169-75.864-64.169h-155.96c-38.121 0-69.769 27.73-75.864 64.125-0.70358 4.1624-1.0665 8.4433-1.0665 12.806v135.89c0 4.3624 0.36295 8.6359 1.0665 12.798 4.8513 28.996 25.93 52.497 53.586 60.844 7.051 2.1331 14.531 3.281 22.279 3.281h155.96c7.7472 0 15.228-1.148 22.279-3.281 27.663-8.3545 48.749-31.87 53.586-60.888 0.6962-4.1476 1.0591-8.4063 1.0591-12.754v-135.89c0-4.3476-0.36292-8.6137-1.0591-12.761h-3e-5zm-62.666 222.29c-4.2883 0.76285-8.6952 1.1628-13.198 1.1628h-155.96c-4.5031 0-8.91-0.39999-13.198-1.1628-35.018-6.2288-61.607-36.832-61.607-73.642v-45.105c0-127.45 103.31-165.59 230.76-165.59 41.313 0 74.805 33.492 74.805 74.805v135.89c-100.29 13.42-26.589 67.413-61.607 73.642l3e-5 3e-5z" fill="#3f3d56"/><polygon points="349.16 249.19 355.16 288.19 443.16 276.19 434.66 230.62" fill="#6c63ff"/>
<rect x="381.84" y="30.342" width="36.385" height="37.661" fill="#2f2e41"/><polygon points="385.16 70.186 394.16 43.186 411.7 43.186 412.63 70.186" fill="#ffb6b6"/>
<polygon points="385.16 70.186 394.16 43.186 411.7 43.186 412.63 70.186" opacity=".1" isolation="isolate"/>
<path d="m394.66 310.69-1 104-1 8v11.484l15 1.5158 1-23s16-45 12-80-2-25-2-25l-24 3z" fill="#ffb6b6"/>
<path d="m404.18 318.85-36.901 97.238-1.9787 7.8157-4.1777 10.697-14.524-4.0448 7.4354-21.788s1.4662-47.737 17.924-78.884 10.957-22.56 10.957-22.56l21.264 11.525v3e-5z" fill="#ffb6b6"/>
<path d="m385.16 67.186-27 12 17.24 89.012-2.7238 127.76-18 38s-3.0158 21.732 27.984 7.7323 66-18 66-18l-8.5-58.5-7.5-153.5 1-34-22-14s-26.5 3.5-26.5 3.5z" fill="#2f2e41"/>
<path d="m370.12 335.34-29.962-50.157 34.24-116.99-16.24-89.012 28.49-12.197s14.749 14.362 14.749 26.209-31.277 242.14-31.277 242.14v-3e-5z" fill="#e6e6e6"/>
<path d="m435.12 325.34-27.197-233.63c-0.34341-2.95 0.16013-5.9368 1.4518-8.6111l7.7828-16.114 30.5 8.6968-12.26 95.512 32.76 93.988-33.038 60.157z" fill="#e6e6e6"/>
<path d="m410.66 433.69s-19-11-21-5-3 11-3 11-5 19 10 19 14-8.6417 14-8.6417v-16.358z" fill="#2f2e41"/>
<path d="m344.54 427.61s21.7-3.3346 21.38 2.9819c-0.3197 6.3165-1.2071 11.338-1.2071 11.338s-2.2543 19.517-16.227 14.06-9.8971-13.143-9.8971-13.143l5.9508-15.237-3e-5 -3e-5z" fill="#2f2e41"/>
<circle cx="404.1" cy="33.021" r="24.86" fill="#ffb6b6"/>
<path d="m423.96 10.868c-1.1571-6.1294-7.4491-10.275-13.665-10.795s-12.305 1.8273-17.902 4.5792c-3.7946 1.8655-7.5306 3.9681-10.604 6.8718s-5.4606 6.6969-6.012 10.889c-0.19507 1.4832-0.1698 3.0329-0.77692 4.4002-0.75845 1.708-2.3865 2.868-3.3692 4.4576-1.7623 2.851-0.95267 6.9986 1.7524 8.9775-3.4002 1.4491-6.894 2.9607-9.486 5.5956s-4.0888 6.7031-2.6664 10.115c0.50323 1.207 1.3348 2.2635 1.7649 3.4984 0.81668 2.345 0.03943 5.0091-1.4092 7.0258s-3.4932 3.5123-5.5017 4.9723c5.162 1.0118 10.431 1.8002 15.67 1.3281s10.497-2.308 14.291-5.9518 5.8808-9.2644 4.5197-14.345c-1.0427-3.8923-3.959-7.303-3.9571-11.333 0.00143-3.0975 1.7431-5.8916 3.4249-8.4927 3.6729-5.6807 7.3458-11.361 11.019-17.042 0.66068-1.0218 1.3574-2.0792 2.4014-2.7042 1.7761-1.0633 4.0798-0.59568 5.9523 0.28683 1.8724 0.88252 3.583 2.1487 5.5794 2.6958 4.0745 1.1168 8.8011-1.4479 10.086-5.4726" fill="#2f2e41"/>
<path d="m409.28 61.425c-2.0716 2.0061-5.057 2.6522-7.8238 3.4652s-5.7098 2.0914-6.955 4.6924c-1.221 2.5504-0.33459 5.7879 1.6869 7.765s4.9582 2.81 7.7856 2.7708c2.8274-0.03922 5.5828-0.86796 8.2418-1.8301 7.2705-2.6309 14.157-6.3215 20.373-10.919-4.0268-1.1141-6.6611-5.8161-5.5084-9.832 0.93768-3.2668 3.805-5.5453 5.7562-8.3281 3.3596-4.7915 3.9192-11.108 2.8068-16.853-1.1125-5.7452-3.7316-11.071-6.3236-16.318-0.81934-1.6585-1.658-3.3451-2.9362-4.6824-1.2781-1.3373-3.0878-2.2954-4.9278-2.1038-3.0533 0.31795-5.003 3.6699-5.0238 6.7397s1.3259 5.9549 2.3473 8.8499c1.0523 2.9826 1.7838 6.1441 1.5015 9.2942-0.2366 2.6399-1.1967 5.2113-2.7481 7.3603-1.1981 1.6595-2.7248 3.0522-4.0275 4.631-1.0071 1.2206-1.9001 2.6031-2.1649 4.1632-0.48181 2.8391 1.1836 5.7119 0.72714 8.5552-0.48248 3.0056-3.6452 5.3067-6.6534 4.8408" fill="#2f2e41"/>
<circle cx="333.25" cy="323.64" r="85" fill="#6c63ff"/>
<g fill="#fff">
<path d="m384.18 316.82h-10.567c-1.6438-9.6871-6.7168-18.46-14.292-24.717-17.434-14.4-43.241-11.94-57.641 5.4941-0.04913 0.05563-0.09644 0.11282-0.14169 0.17151-1.1506 1.4915-0.87427 3.6333 0.61716 4.784 1.4912 1.1507 3.6331 0.87448 4.7839-0.61697 6.2554-7.5788 15.724-12.402 26.311-12.402 16.209 0.00195 30.179 11.406 33.426 27.286h-9.318c-0.3988 1.2e-4 -0.78458 0.13992-1.0908 0.39502-0.72375 0.60281-0.82175 1.6781-0.21915 2.4019l13.411 16.099c0.06577 0.07889 0.13855 0.1517 0.21759 0.21747 0.72324 0.60327 1.7987 0.50583 2.4019-0.21747l13.411-16.099c0.25504-0.30624 0.3949-0.69223 0.39514-1.0908 2.7e-4 -0.94186-0.763-1.7057-1.7049-1.706v3e-5z"/>
<path d="m364.34 344.73c-1.4915-1.1506-3.6333-0.87433-4.7839 0.6171-4.962 6.0078-11.831 10.136-19.464 11.699-18.462 3.7799-36.492-8.1221-40.272-26.584h9.3183c0.94186-4e-4 1.7051-0.76419 1.7049-1.706-2.7e-4 -0.39853-0.14011-0.78452-0.39514-1.0908l-13.411-16.099c-0.60312-0.72336-1.6786-0.8208-2.4019-0.21753-0.07904 0.06577-0.15182 0.13855-0.21759 0.21753l-13.411 16.099c-0.6026 0.72375-0.50461 1.7991 0.21915 2.4019 0.30624 0.25516 0.69205 0.3949 1.0908 0.39502h10.566c1.644 9.6872 6.7168 18.46 14.293 24.717 17.434 14.4 43.241 11.94 57.641-5.494 0.04913-0.05569 0.09619-0.11295 0.14142-0.17163 1.1509-1.4915 0.87454-3.6333-0.61691-4.784h6e-5z"/>
</g>
<path d="m356.98 237.19c-1.0294 7.3662-5.6646 12.806-10.352 12.15-4.6878-0.65588-7.6522-7.1584-6.6215-14.527 0.37137-2.9491 1.4436-5.7665 3.127-8.2163l4.7558-31.156 14.573 2.5434-6.2355 30.444c0.94736 2.8184 1.2058 5.8228 0.75369 8.7616h-3e-5z" fill="#ffb6b6"/>
<path d="m369.66 77.686s-15-5-17 13-4 40-4 40-9 21-5 32 11 3.3307 4 12.665-6.0248 40.047-6.0248 40.047l22.525-1.1339s12.5-82.579 12.5-84.579-7-52-7-52v4e-5z" fill="#e6e6e6"/>
<path d="m467.16 233.85c0.27881 7.4326-3.3302 13.601-8.0603 13.778s-8.7894-5.7049-9.0673-13.14c-0.15176-2.9686 0.40961-5.9303 1.6371-8.6374l-0.78369-31.507 14.793-0.05261-0.798 31.066c1.4271 2.6085 2.2086 5.521 2.279 8.4935l3e-5 2e-5z" fill="#ffb6b6"/>
<path d="m444.07 77.349s15.087-4.7312 16.765 13.302 3.2847 51.065 3.2847 51.065 8.6234 21.157 4.4275 32.084-11.058 3.1336-4.2256 12.592c6.8321 9.4582 4.38 36.131 4.38 36.131l-22.501-1.5361s-10.094-78.772-10.059-80.771 7.9279-62.867 7.9279-62.867l-3e-5 2e-5z" fill="#e6e6e6"/>
</svg>
